<svg xmlns="http://www.w3.org/2000/svg" xmlns:xlink="http://www.w3.org/1999/xlink" id="Layer_2" viewBox="0 0 237.05 164.11" width="237.05px" height="164.11px"><defs><style>.cls-1 { clip-path: url("#clippath"); }
.cls-2 { fill: rgb(0, 9, 0); }
.cls-3 { fill: rgb(154, 176, 169); }
.cls-3, .cls-4, .cls-5, .cls-6, .cls-7, .cls-8 { fill-rule: evenodd; }
.cls-4 { fill: rgb(45, 52, 71); }
.cls-5 { fill: rgb(127, 142, 137); }
.cls-6 { fill: rgb(176, 193, 186); }
.cls-7 { fill: rgb(69, 88, 69); }
.cls-8 { fill: rgb(188, 204, 198); }
</style><clipPath id="clippath"><rect class="cls-2" x="0" width="237.05" height="164.11"/></clipPath></defs><g id="Layer_1-2"><rect class="cls-2" x="0" width="237.05" height="164.11"/><g class="cls-1"><path class="cls-7" d="m144.16,157.22c-7.27,8.01-9.12,18.9-5.37,30.35,3.1,9.46,11.57,16.56,21.23,19.48,9.73,2.94,20.59,1.62,28.28-5.41,3.94-3.61,7.97-10.17,9.07-15.41,2.77-13.17-3.37-30.44-18.65-32.32-5.31-.65-21.13-2.14-27.52,14.89-4.43,11.81,2.15,22.94,13.39,25.87,8.1,2.12,16.81-4.08,19.21-11.57,1.43-4.46.93-10.16-3.04-13.5-5.46-4.59-12.15-3.34-15.6.49-1.18,1.31-2.08,3.56-2.09,5.82,0,2.5,1.02,4.93,3.4,6.34,1.34.79,3.07.35,3.86-.99.79-1.34.35-3.07-.99-3.86-.53-.31-.63-.92-.63-1.48,0-.79.23-1.6.64-2.06,1.72-1.91,5.06-2.23,7.78.05,2.18,1.83,2.08,5.02,1.3,7.47-1.57,4.9-7.11,9.22-12.41,7.83-8.01-2.09-12.69-10.02-9.53-18.43,4.97-13.24,17.42-11.78,21.55-11.27,11.9,1.47,15.98,15.3,13.83,25.56-.89,4.22-4.17,9.5-7.35,12.41-6.21,5.68-15,6.54-22.85,4.17-7.92-2.39-14.96-8.08-17.5-15.83-3.06-9.35-1.75-18.27,4.18-24.81,1.05-1.15.96-2.94-.19-3.98-1.15-1.05-2.94-.96-3.98.19Z"/><path class="cls-8" d="m228.85,93.74c-4.61.86-9.57.79-14.73.29-2.89-.28-6.06-.98-9.2-1.29-3.65-.36-7.27-.18-10.53,1.32-6.81,3.13-10.39,9.32-13.96,15.5-2.95,5.11-5.88,10.24-11.94,12.41-2.18.78-4.48.67-6.78.37-2.79-.36-5.59-1-8.27-1.22-9.49-.77-16.85,5.48-20.93,13.39-.71,1.38-.17,3.09,1.22,3.8,1.38.71,3.09.17,3.8-1.22,3.05-5.93,8.35-10.93,15.46-10.35,2.6.21,5.31.84,8.01,1.19,3.19.41,6.37.43,9.4-.65,7.42-2.65,11.3-8.64,14.92-14.89,2.99-5.18,5.74-10.58,11.44-13.21,2.35-1.08,4.98-1.08,7.62-.82,3.15.31,6.32,1.01,9.21,1.29,7.65.75,14.88.53,21.36-1.66,2.44,1.36,5.09,2.5,7.83,3.37,7.89,2.51,16.45,2.77,22.66.02,3.73-1.65,7.63-3.61,10.69-6.34,1.16-1.04,1.26-2.82.23-3.98-1.04-1.16-2.82-1.26-3.98-.23-2.64,2.35-6.02,3.97-9.22,5.4-5.11,2.27-12.16,1.83-18.67-.24-1.01-.32-2.01-.68-2.99-1.08,3.05-1.91,5.88-4.43,8.43-7.72,1.55-1.99,2.32-4.24,3.28-6.54,2.2-5.3,1.03-10.27-2.02-13.75-2.96-3.38-7.78-5.36-13.16-4.65-8.87,1.16-14.61,7.72-15.73,16.43-.43,3.33.16,6.8,1.93,9.7,1.18,1.92,2.76,3.73,4.64,5.37Zm6.58-2.01c3.72-1.66,7.1-4.22,10.03-8.01,1.23-1.58,1.76-3.41,2.52-5.24,2.57-6.19-2.76-11.5-9.25-10.65-6.18.81-10.08,5.48-10.86,11.56-.27,2.07.04,4.24,1.15,6.03,1.46,2.39,3.71,4.52,6.41,6.31Z"/><path class="cls-5" d="m220.84,113.76c-.27-.8-.88-1.44-1.67-1.74-.79-.3-1.67-.23-2.4.18-7.89,4.48-26.01,17.89-32.92,23.96-1.66,1.46-2.74,2.61-3.11,3.2-.49.77-.56,1.43-.55,1.86.01.57.19,1.53,1.23,2.39.63.52,2.44,1.45,5.06,2.52,10.17,4.14,34.11,11.86,39.51,12.9,1.76.34,2.84-.14,3.13-.33.62-.4,1.22-1.09,1.54-2.21.26-.92.34-2.48.12-4.53-.97-9.04-7.23-30.11-9.94-38.21Zm4.29,39.28c-7.97-2.04-29.48-9.1-37.62-12.59,5.77-5.12,20.45-16.08,29.08-21.55h0c2.53,7.98,6.45,21.47,8.03,30.03.27,1.43.42,2.95.51,4.1Z"/><path class="cls-8" d="m113.32,174.69c-.78-14.6-13.57-19.9-16.59-20.96-18.74-6.59-27.66,8.24-28.99,12.87-5.02,17.42,12.01,30.1,25.48,24.17,12.12-5.33,10.44-24.06-3.02-26.36-6.73-1.15-10.82,4.23-10.46,9.25.24,3.35,2.35,6.69,7.16,7.77,1.52.34,3.03-.61,3.37-2.13.34-1.52-.62-3.03-2.13-3.37-1.75-.39-2.69-1.45-2.77-2.67-.13-1.83,1.43-3.71,3.89-3.29,7.98,1.37,8.89,12.48,1.7,15.64-9.56,4.2-21.35-5.09-17.78-17.45.99-3.44,7.79-14,21.7-9.11,2.31.81,12.24,4.76,12.83,15.94.08,1.55,1.41,2.75,2.96,2.67,1.55-.08,2.75-1.41,2.67-2.96Z"/><path class="cls-8" d="m-8.2,93.74c-4.61.86-9.57.79-14.73.29-2.89-.28-6.06-.98-9.2-1.29-3.65-.36-7.27-.18-10.53,1.32-6.81,3.13-10.39,9.32-13.96,15.5-2.95,5.11-5.88,10.24-11.94,12.41-2.18.78-4.48.67-6.78.37-2.79-.36-5.59-1-8.27-1.22-9.49-.77-16.85,5.48-20.93,13.39-.71,1.38-.17,3.09,1.22,3.8,1.38.71,3.09.17,3.8-1.22,3.05-5.93,8.35-10.93,15.46-10.35,2.6.21,5.31.84,8.01,1.19,3.19.41,6.37.43,9.4-.65,7.42-2.65,11.3-8.64,14.92-14.89,2.99-5.18,5.74-10.58,11.44-13.21,2.35-1.08,4.98-1.08,7.62-.82,3.15.31,6.32,1.01,9.21,1.29,7.65.75,14.88.53,21.36-1.66,2.44,1.36,5.09,2.5,7.83,3.37,7.89,2.51,16.45,2.77,22.66.02,3.73-1.65,7.63-3.61,10.69-6.34,1.16-1.04,1.26-2.82.23-3.98-1.04-1.16-2.82-1.26-3.98-.23-2.64,2.35-6.02,3.97-9.22,5.4-5.11,2.27-12.16,1.83-18.67-.24-1.01-.32-2.01-.68-2.99-1.08,3.05-1.91,5.88-4.43,8.43-7.72,1.55-1.99,2.32-4.24,3.28-6.54,2.2-5.3,1.03-10.27-2.02-13.75-2.96-3.38-7.78-5.36-13.16-4.65-8.87,1.16-14.61,7.72-15.73,16.43-.43,3.33.16,6.8,1.93,9.7,1.18,1.92,2.76,3.73,4.64,5.37Zm6.58-2.01c3.72-1.66,7.1-4.22,10.03-8.01,1.23-1.58,1.76-3.41,2.52-5.24,2.57-6.19-2.76-11.5-9.25-10.65-6.18.81-10.08,5.48-10.86,11.56-.27,2.07.04,4.24,1.15,6.03,1.46,2.39,3.71,4.52,6.41,6.31Z"/><path class="cls-7" d="m70,164.74c-6.77,19.72,17.89,30.93,29.56,18.92,9.22-9.5.62-26.22-12.72-23.29-6.67,1.46-8.43,7.99-6.21,12.51,1.48,3.02,4.7,5.31,9.56,4.5,1.53-.26,2.57-1.71,2.32-3.24-.26-1.54-1.71-2.57-3.25-2.32-1.77.29-3.03-.33-3.57-1.43-.81-1.65-.07-3.98,2.36-4.51,7.91-1.74,12.93,8.22,7.46,13.85-8.01,8.25-24.82.38-20.17-13.16.5-1.47-.28-3.08-1.75-3.58-1.47-.5-3.08.28-3.58,1.75Z"/><path class="cls-7" d="m-2.97,116.27c-3.31,2.5-.18,8.63,4.63,5.92,4.84-2.72-.25-9.23-4.63-5.92Z"/><path class="cls-6" d="m33.53,38.38c-6.51,7.17-8.17,16.92-4.81,27.17,2.77,8.47,10.35,14.83,19,17.44,8.72,2.63,18.44,1.44,25.33-4.86,3.53-3.23,7.13-9.11,8.12-13.8,2.49-11.82-3.06-27.29-16.78-28.98-4.76-.59-18.95-1.9-24.68,13.38-3.99,10.64,1.93,20.67,12.06,23.31,7.33,1.91,15.22-3.67,17.38-10.45,1.3-4.06.83-9.25-2.79-12.29-4.99-4.19-11.1-3.04-14.25.47-1.09,1.21-1.93,3.28-1.93,5.37,0,2.32.95,4.58,3.17,5.89,1.34.79,3.07.35,3.86-.99.79-1.34.35-3.07-.99-3.86-.36-.22-.4-.64-.4-1.02,0-.61.16-1.25.48-1.6,1.42-1.58,4.18-1.81,6.43.08,1.82,1.53,1.7,4.21,1.05,6.26-1.34,4.19-6.06,7.89-10.59,6.71-6.9-1.8-10.93-8.63-8.21-15.88,4.31-11.49,15.13-10.2,18.71-9.76,10.33,1.27,13.82,13.31,11.95,22.22-.77,3.68-3.64,8.27-6.41,10.8-5.4,4.94-13.06,5.68-19.9,3.62-6.9-2.08-13.05-7.03-15.27-13.79-2.67-8.15-1.54-15.92,3.63-21.62,1.05-1.15.96-2.94-.19-3.98-1.15-1.05-2.94-.96-3.98.19Z"/><path class="cls-8" d="m92.55,51.6c8.72,3.06,17.94,3.93,26.76,1.29,1.34-.4,2.11-1.82,1.7-3.16-.4-1.34-1.82-2.11-3.16-1.7-7.79,2.33-15.92,1.49-23.62-1.21-1.32-.46-2.77.23-3.24,1.56-.46,1.32.24,2.77,1.56,3.24Z"/><path class="cls-8" d="m92.39,66.34c11.12,2.45,22.66,2.76,32.81-3.14,1.21-.7,1.62-2.26.92-3.47-.7-1.21-2.26-1.62-3.47-.92-9.02,5.24-19.29,4.75-29.16,2.57-1.37-.3-2.72.56-3.02,1.93-.3,1.37.56,2.73,1.93,3.03Z"/><path class="cls-7" d="m178.28,67.16c.48,1.5,3.73,10.44,5.65,15.71l-20.29-2.42c-.87-.1-1.72.24-2.27.92-.55.68-.71,1.59-.43,2.41l5.64,16.74c-6.32-1.01-17.83-2.87-19.58-3.27-1.37-.31-2.73.55-3.04,1.92-.31,1.37.55,2.73,1.92,3.04,2.47.56,24.05,3.99,24.05,3.99.88.14,1.76-.19,2.34-.87.57-.68.75-1.61.47-2.45l-5.7-16.91,20.4,2.43c.88.1,1.74-.25,2.29-.95.55-.69.7-1.62.39-2.45,0,0-6.32-17.25-7-19.38-.42-1.34-1.85-2.08-3.19-1.65-1.34.42-2.08,1.85-1.65,3.19Z"/><path class="cls-7" d="m-4.44,44.09l18.97,2.46c.83.11,1.65-.2,2.21-.82.56-.62.78-1.47.58-2.29l-3.96-16.62,18.17,1.31c.82.06,1.62-.28,2.14-.92.52-.63.71-1.48.49-2.27l-4.39-16.36c5.59.66,15.69,1.86,17.23,2.16,1.38.26,2.71-.64,2.97-2.01.26-1.38-.64-2.71-2.02-2.97-2.18-.42-21.31-2.65-21.31-2.65-.84-.1-1.67.23-2.22.86-.55.64-.75,1.51-.53,2.32l4.43,16.53-18.07-1.3c-.81-.06-1.59.27-2.12.89-.52.62-.72,1.45-.54,2.24l3.91,16.41-15.33-1.99c-1.39-.18-2.66.8-2.85,2.19-.18,1.39.8,2.66,2.19,2.85Z"/><path class="cls-3" d="m102.32-4.77c-.27-.8-.88-1.44-1.67-1.74-.79-.3-1.67-.23-2.4.18-7.89,4.48-26.01,17.89-32.92,23.96-1.66,1.46-2.74,2.61-3.11,3.2-.49.77-.56,1.43-.55,1.86.01.57.19,1.53,1.23,2.39.63.52,2.44,1.45,5.06,2.52,10.17,4.14,34.11,11.86,39.51,12.9,1.76.34,2.84-.14,3.13-.33.62-.4,1.22-1.09,1.54-2.21.26-.92.34-2.48.12-4.53-.97-9.04-7.23-30.11-9.94-38.21Zm4.29,39.28c-7.97-2.04-29.48-9.1-37.62-12.59,5.77-5.12,20.45-16.08,29.08-21.55h0c2.53,7.98,6.45,21.47,8.03,30.03.27,1.43.42,2.95.51,4.1Z"/><path class="cls-5" d="m188.53,46.21c-6.77,19.72,17.89,30.93,29.56,18.92,9.22-9.5.62-26.22-12.72-23.29-6.67,1.46-8.43,7.99-6.21,12.51,1.48,3.02,4.7,5.31,9.56,4.5,1.53-.26,2.57-1.71,2.32-3.24-.26-1.54-1.71-2.57-3.25-2.32-1.77.29-3.03-.33-3.57-1.43-.81-1.65-.07-3.98,2.36-4.51,7.91-1.74,12.93,8.22,7.46,13.85-8.01,8.25-24.82.38-20.17-13.16.5-1.47-.28-3.08-1.75-3.58-1.47-.5-3.08.28-3.58,1.75Z"/><path class="cls-7" d="m158.36,28.37c7.93,5.48,20,3.35,25.74-4.96.8-1.15.51-2.74-.64-3.54-1.15-.8-2.74-.51-3.53.65-3.94,5.69-12.02,7.5-17.71,4.29,1.47-1.55,2.76-3.12,3.79-4.51,1.5-2.01,3.07-4.88,3.5-7.69.34-2.27-.01-4.5-1.42-6.43-3.53-4.84-9.95-3.63-13.41.3-3.19,3.63-3.93,10.81-1.91,15.16.54,1.17,1.18,2.22,1.9,3.17-.42.31-.86.61-1.3.89-2.94,1.86-6.24,2.83-9.41.78-3.71-2.4-4.29-6.96-3.73-11.91.97-8.63,5.69-18.5,8.53-23.38,1.47-2.53,3.02-5.14,5.07-7.24.98-1,.96-2.61-.04-3.59-1-.98-2.61-.96-3.59.04-2.34,2.4-4.15,5.35-5.83,8.23-3.08,5.29-8.14,16.01-9.19,25.37-.79,7.05.73,13.32,6.02,16.73,4.08,2.64,8.29,2.42,12.23.68,1.72-.76,3.38-1.83,4.93-3.07Zm.1-6.95c1.35-1.42,2.53-2.87,3.47-4.14.9-1.21,1.88-2.83,2.36-4.52.35-1.23.46-2.52-.31-3.58-1.46-2-4.07-.96-5.5.66-2.03,2.31-2.4,6.9-1.12,9.67.32.69.68,1.32,1.09,1.9Z"/><path class="cls-6" d="m120.93,13.53c-.59,7.15.78,13.18,2.99,19.88,6.74,20.45,23.23,31.53,43.09,37.36,1.35.4,2.76-.38,3.15-1.72.39-1.34-.38-2.76-1.72-3.15-18.22-5.34-33.52-15.32-39.7-34.07-1.99-6.03-3.28-11.44-2.75-17.88.12-1.4-.93-2.63-2.32-2.74-1.4-.12-2.62.93-2.74,2.32Z"/><path class="cls-3" d="m161.82,40.54c-5.48,4.14-3.59,12.48,1.99,14.92,2.3,1.01,5.25,1.09,8.54-.76,2.27-1.28,3.56-2.96,4.16-4.69.93-2.67.26-5.59-1.5-7.84-2.78-3.56-8.19-5.42-13.2-1.64Zm3.06,4.05c2.23-1.69,4.64-1,5.97.52.79.91,1.26,2.11.87,3.23-.26.74-.89,1.39-1.86,1.94-1.55.87-2.93,1.01-4.01.53-2.33-1.02-3.25-4.49-.97-6.22Z"/><path class="cls-3" d="m148.48,134.94c-5.48,4.14-3.59,12.48,1.99,14.92,2.3,1.01,5.25,1.09,8.54-.76,2.27-1.28,3.56-2.96,4.16-4.69.93-2.67.26-5.59-1.5-7.84-2.78-3.56-8.19-5.42-13.2-1.64Zm3.06,4.05c2.23-1.69,4.64-1,5.97.52.79.91,1.26,2.11.87,3.23-.26.74-.89,1.39-1.86,1.94-1.55.87-2.93,1.01-4.01.53-2.33-1.02-3.25-4.49-.97-6.22h0Z"/><path class="cls-7" d="m234.07,116.27c-3.31,2.5-.18,8.63,4.63,5.92,4.84-2.72-.25-9.23-4.63-5.92Z"/><path class="cls-7" d="m45.14,21.99c-3.31,2.5-.18,8.63,4.63,5.92,4.84-2.72-.25-9.23-4.63-5.92Z"/><path class="cls-4" d="m1.43-15.61C-5.87-3.15-22.32,7.43-36.06,11.95c-1.33.44-2.06,1.87-1.62,3.21.44,1.33,1.88,2.06,3.21,1.62C-19.67,11.9-2.05.38,5.81-13.04c.71-1.21.3-2.77-.91-3.48-1.21-.71-2.77-.3-3.48.91Z"/><path class="cls-4" d="m-42.18,33.8C-29.51,32.84-10.01,22.62-.42,13.66c1.02-.96,1.08-2.56.12-3.59-.96-1.02-2.56-1.08-3.59-.12-8.89,8.3-26.92,17.9-38.67,18.78-1.4.1-2.45,1.33-2.34,2.72.11,1.4,1.33,2.45,2.72,2.34Z"/><path class="cls-4" d="m238.48-15.61c-7.3,12.45-23.75,23.03-37.49,27.55-1.33.44-2.06,1.87-1.62,3.21.44,1.33,1.88,2.06,3.21,1.62,14.8-4.87,32.42-16.4,40.29-29.81.71-1.21.3-2.77-.91-3.48-1.21-.71-2.77-.3-3.48.91Z"/><path class="cls-7" d="m227.12,43.56l24.48,3c.83.1,1.65-.21,2.2-.83.55-.62.77-1.47.58-2.28l-3.96-16.62,18.17,1.31c.82.06,1.62-.28,2.14-.92.52-.63.71-1.48.49-2.27l-4.39-16.36c5.59.66,15.69,1.86,17.23,2.16,1.38.26,2.71-.64,2.97-2.01.26-1.38-.64-2.71-2.02-2.97-2.18-.42-21.31-2.65-21.31-2.65-.84-.1-1.67.23-2.22.86-.55.64-.75,1.51-.53,2.32l4.43,16.53-18.07-1.3c-.81-.06-1.59.27-2.12.89-.52.62-.72,1.45-.54,2.24l3.91,16.43-20.85-2.56c-1.39-.17-2.66.82-2.83,2.21-.17,1.39.82,2.66,2.21,2.83Z"/><path class="cls-4" d="m194.87,33.8c12.67-.95,32.17-11.18,41.76-20.13,1.02-.96,1.08-2.56.12-3.59-.96-1.02-2.56-1.08-3.59-.12-8.89,8.3-26.92,17.9-38.67,18.78-1.4.1-2.45,1.33-2.34,2.72.11,1.4,1.33,2.45,2.72,2.34Z"/><path class="cls-7" d="m72.31,134.96c19.44.28,29.52-2.13,46.99-10.13,5.83-2.67,11.7-5.22,16.45-9.69,1.02-.96,1.07-2.57.11-3.59-.96-1.02-2.57-1.07-3.59-.11-4.33,4.08-9.75,6.32-15.08,8.76-16.66,7.63-26.27,9.94-44.8,9.67-1.4-.02-2.56,1.1-2.58,2.5-.02,1.4,1.1,2.56,2.5,2.58Z"/><path class="cls-4" d="m30.08,132.96c2.51-3.44,6.48-6.39,10.8-7.76,4.08-1.3,8.49-1.18,12.17,1.5,1.98,1.44,2.99,3.4,4.46,5.26.87,1.1,2.47,1.29,3.57.42,1.1-.87,1.29-2.47.42-3.57-1.77-2.23-3.08-4.49-5.45-6.21-9.89-7.21-23.74-1.33-30.08,7.37-.83,1.13-.58,2.72.56,3.55,1.13.83,2.72.58,3.55-.56Z"/><path class="cls-3" d="m29.27,170.82c.14.39.3.78.46,1.16,2.47,5.73,6.57,8.49,10.99,9.15,6.33.95,13.61-2.66,17.99-8.95.8-1.15.52-2.73-.63-3.54-1.15-.8-2.73-.52-3.54.63-3.71,5.32-10.08,8.44-15.11,6.25-2.06-.9-3.81-2.72-5.05-5.57-.21-.49-.4-.99-.57-1.51,5.93-3.68,11.17-9.25,14.12-14.05,1.53-2.49,3.74-7.18,4.04-11.21.26-3.47-.81-6.49-3.8-8.17-3.33-1.87-6.73-1.25-9.78.76-3.76,2.47-6.92,7.2-8.31,10.36-2.43,5.53-3.22,13.11-2.11,19.7-5.64,2.56-11.7,2.63-16.14-3.37-3.91-5.29-2.95-13.25.08-21.16,4.78-12.49,15.02-25.06,23.31-27.86,1.33-.45,2.04-1.89,1.59-3.22-.45-1.33-1.89-2.04-3.22-1.59-9.27,3.13-21.08,16.88-26.43,30.85-3.72,9.73-4.22,19.49.58,26,5.94,8.05,13.93,8.52,21.52,5.33Zm3.42-7.69c4.59-3.19,8.57-7.57,10.92-11.38,1.22-1.99,3.06-5.71,3.3-8.93.1-1.38-.03-2.69-1.22-3.36-1.55-.86-3.1-.36-4.52.57-2.94,1.93-5.36,5.68-6.45,8.16-1.84,4.2-2.59,9.81-2.04,14.94Z"/><path class="cls-7" d="m73.86,146.52c12.85.15,28.29-.84,39.65-4.66,1.33-.45,2.04-1.89,1.6-3.22-.45-1.33-1.89-2.04-3.22-1.6-10.88,3.66-25.66,4.54-37.97,4.4-1.4-.02-2.55,1.11-2.57,2.51-.02,1.4,1.11,2.55,2.51,2.57Z"/><path class="cls-5" d="m121.32,98.99c-1.32,1.99-2.93,3.9-4.54,5.23-5.64,4.65-16.16,6.29-24.73,4.36-1.15-.26-2.27-.58-3.33-.97,3.08-3.01,5.31-6.81,6.07-11.16,1.15-6.59-1.55-10.76-5.07-12.66-5.45-2.94-13.46-.54-15.1,7.63-1.02,5.1-.23,9.29,1.72,12.64.84,1.45,1.91,2.75,3.16,3.89-1.86.89-3.84,1.52-5.83,1.88-7.12,1.28-14.51-1.13-16.49-9.2-.33-1.36-1.71-2.2-3.07-1.86-1.36.33-2.2,1.71-1.86,3.07,2.71,11.04,12.58,14.74,22.32,12.99,3.35-.6,6.66-1.87,9.61-3.68,2.06,1.05,4.34,1.85,6.76,2.39,10.1,2.26,22.43.08,29.08-5.4,2.62-2.16,5.27-5.59,7.02-8.8,5.78-.17,10.69-1.99,14.55-5.13,4.93-4,8.2-10.21,9.26-18.11.19-1.39-.79-2.67-2.18-2.85-1.39-.19-2.67.79-2.85,2.18-.86,6.45-3.4,11.57-7.43,14.84-2.55,2.07-5.67,3.37-9.28,3.82.45-1.76.72-3.56.9-5.35.84-8.03-2.27-12.48-6.19-14.44-3.27-1.63-7.3-1.54-10.72-.08-3.49,1.5-6.28,4.39-7.1,8.1-.67,3.08-.03,6.82,3.07,10.85,2.83,3.67,7.85,5.2,12.24,5.82Zm-37.34,6.11c2.95-2.44,5.13-5.68,5.8-9.53.65-3.73-.48-6.24-2.48-7.32-2.83-1.52-6.86-.07-7.71,4.16-.74,3.66-.27,6.68,1.13,9.09.82,1.41,1.93,2.6,3.26,3.6Zm39.82-10.94c.65-1.92.95-3.95,1.16-5.96.53-5.1-.92-8.13-3.41-9.37-1.96-.98-4.39-.84-6.45.05-1.99.85-3.67,2.41-4.14,4.52-.42,1.91.21,4.16,2.13,6.66,2.14,2.77,6.14,3.54,9.41,3.96.44.06.87.1,1.29.14Z"/></g></g></svg>