<?xml version="1.0" ?>

<!DOCTYPE svg  PUBLIC '-//W3C//DTD SVG 1.1//EN'  'http://www.w3.org/Graphics/SVG/1.1/DTD/svg11.dtd'>
<svg width="69px" height="69px" viewBox="0 0 32 32" enable-background="new 0 0 32 32" version="1.1" xml:space="preserve" xmlns="http://www.w3.org/2000/svg" xmlns:xlink="http://www.w3.org/1999/xlink">

<g id="Home"/>

<g id="Print"/>

<g id="Mail"/>

<g id="Camera"/>

<g id="Video"/>

<g id="Film"/>

<g id="Message"/>

<g id="Telephone"/>

<g id="User">

<path d="M21.6,17c2.1-1.6,3.4-4.2,3.4-7c0-5-4-9-9-9s-9,4-9,9c0,2.8,1.3,5.4,3.4,7C5.2,17.3,1,21.7,1,27v3   c0,0.5,0.5,1,1,1h14h14c0.5,0,1-0.5,1-1v-3C31,21.7,26.8,17.3,21.6,17z" fill="#FFC10A"/>

<path d="M21.6,17c-1.5,1.2-3.5,2-5.6,2s-4.1-0.7-5.6-2C5.2,17.3,1,21.7,1,27v3c0,0.5,0.5,1,1,1h14h14   c0.5,0,1-0.5,1-1v-3C31,21.7,26.8,17.3,21.6,17z" fill="#2197F3"/>

</g>

<g id="File"/>

<g id="Folder"/>

<g id="Map"/>

<g id="Download"/>

<g id="Upload"/>

<g id="Video_Recorder"/>

<g id="Schedule"/>

<g id="Cart"/>

<g id="Setting"/>

<g id="Search"/>

<g id="Pencils"/>

<g id="Group"/>

<g id="Record"/>

<g id="Headphone"/>

<g id="Music_Player"/>

<g id="Sound_On"/>

<g id="Sound_Off"/>

<g id="Lock"/>

<g id="Lock_open"/>

<g id="Love"/>

<g id="Favorite"/>

<g id="Film_1_"/>

<g id="Music"/>

<g id="Puzzle"/>

<g id="Turn_Off"/>

<g id="Book"/>

<g id="Save"/>

<g id="Reload"/>

<g id="Trash"/>

<g id="Tag"/>

<g id="Link"/>

<g id="Like"/>

<g id="Bad"/>

<g id="Gallery"/>

<g id="Add"/>

<g id="Close"/>

<g id="Forward"/>

<g id="Back"/>

<g id="Buy"/>

<g id="Mac"/>

<g id="Laptop"/>

</svg>